<svg width="1541" height="911" xmlns="http://www.w3.org/2000/svg" xmlns:xlink="http://www.w3.org/1999/xlink" overflow="hidden"><defs><clipPath id="clip0"><rect x="2538" y="487" width="1541" height="911"/></clipPath><clipPath id="clip1"><rect x="2537" y="486" width="1541" height="912"/></clipPath><clipPath id="clip2"><rect x="2537" y="486" width="1541" height="912"/></clipPath><clipPath id="clip3"><rect x="2537" y="486" width="1541" height="912"/></clipPath><clipPath id="clip4"><rect x="2771" y="537" width="1212" height="637"/></clipPath><clipPath id="clip5"><rect x="2537" y="486" width="1541" height="912"/></clipPath><clipPath id="clip6"><rect x="2537" y="486" width="1541" height="912"/></clipPath><clipPath id="clip7"><rect x="2537" y="486" width="1541" height="912"/></clipPath><clipPath id="clip8"><rect x="2537" y="486" width="1541" height="912"/></clipPath><clipPath id="clip9"><rect x="2537" y="486" width="1541" height="912"/></clipPath><clipPath id="clip10"><rect x="2537" y="486" width="1541" height="912"/></clipPath><clipPath id="clip11"><rect x="2537" y="486" width="1541" height="912"/></clipPath><clipPath id="clip12"><rect x="2537" y="486" width="1541" height="912"/></clipPath><clipPath id="clip13"><rect x="2537" y="486" width="1541" height="912"/></clipPath><clipPath id="clip14"><rect x="2537" y="486" width="1541" height="912"/></clipPath><clipPath id="clip15"><rect x="2537" y="486" width="1541" height="912"/></clipPath><clipPath id="clip16"><rect x="2537" y="486" width="1541" height="912"/></clipPath><clipPath id="clip17"><rect x="2537" y="486" width="1541" height="912"/></clipPath></defs><g clip-path="url(#clip0)" transform="translate(-2538 -487)"><g clip-path="url(#clip1)"><path d="M2771.5 1044.53 3980.5 1044.53M2771.5 917.53 3980.5 917.53M2771.5 790.526 3980.5 790.526M2771.5 663.522 3980.5 663.522M2771.5 537.5 3980.5 537.5" stroke="#000000" stroke-width="3.4375" stroke-linejoin="round" stroke-miterlimit="10" fill="none"/></g><g clip-path="url(#clip2)"><path d="M0 0 0.000360892 634" stroke="#BFBFBF" stroke-width="3.4375" stroke-linejoin="round" stroke-miterlimit="10" fill="none" fill-rule="evenodd" transform="matrix(1 0 0 -1 2771.5 1171.5)"/></g><g clip-path="url(#clip3)"><path d="M2771.5 1171.5 3980.5 1171.5" stroke="#BFBFBF" stroke-width="3.4375" stroke-linejoin="round" stroke-miterlimit="10" fill="none" fill-rule="evenodd"/></g><g clip-path="url(#clip4)"><path d="M2771 1036.81C2781.08 1036.81 2791.16 1038.08 2801.24 1036.81 2811.32 1035.54 2821.39 1034.27 2831.47 1029.19 2841.55 1024.11 2851.63 1005.5 2861.71 1006.34 2871.79 1007.19 2881.87 1033 2891.95 1034.27 2902.03 1035.54 2912.11 1015.65 2922.18 1013.96 2932.26 1012.27 2942.34 1026.65 2952.42 1024.11 2962.5 1021.57 2972.58 996.611 2982.66 998.727 2992.74 1000.84 3002.82 1031.73 3012.89 1036.81 3022.97 1041.88 3033.05 1034.27 3043.13 1029.19 3053.21 1024.11 3063.29 1005.5 3073.37 1006.34 3083.45 1007.19 3093.53 1033 3103.61 1034.27 3113.68 1035.54 3123.76 1015.65 3133.84 1013.96 3143.92 1012.27 3154 1026.65 3164.08 1024.11 3174.16 1021.57 3184.24 998.727 3194.32 998.727 3204.39 998.727 3214.47 1016.92 3224.55 1024.11 3234.63 1031.31 3244.71 1039.77 3254.79 1041.88 3264.87 1044 3274.95 1040.19 3285.03 1036.81 3295.1 1033.42 3305.18 1025.38 3315.26 1021.57 3325.34 1017.77 3335.42 1017.77 3345.5 1013.96 3355.58 1010.15 3365.66 1004.65 3375.74 998.727 3385.82 992.803 3395.89 979.686 3405.97 978.417 3416.05 977.148 3426.13 995.341 3436.21 991.11 3446.29 986.879 3456.37 964.031 3466.45 953.03 3476.53 942.029 3486.61 937.798 3496.68 925.104 3506.76 912.411 3516.84 876.446 3526.92 876.869 3537 877.292 3547.08 927.643 3557.16 927.643 3567.24 927.643 3577.32 893.794 3587.39 876.869 3597.47 859.944 3607.55 837.519 3617.63 826.095 3627.71 814.671 3637.79 818.056 3647.87 808.324 3657.95 798.592 3668.03 778.283 3678.11 767.705 3688.18 757.128 3698.26 751.627 3708.34 744.857 3718.42 738.087 3728.5 730.048 3738.58 727.086 3748.66 724.124 3758.74 733.01 3768.82 727.086 3778.89 721.163 3788.97 694.083 3799.05 691.545 3809.13 689.006 3819.21 714.393 3829.29 711.854 3839.37 709.315 3849.45 686.467 3859.53 676.313 3869.6 666.158 3879.68 659.811 3889.76 650.926 3899.84 642.04 3909.92 632.308 3920 623" stroke="#2F5597" stroke-width="13.75" stroke-linecap="round" stroke-linejoin="round" stroke-miterlimit="10" fill="none"/></g><g clip-path="url(#clip5)"><text font-family="Times New Roman,Times New Roman_MSFontService,sans-serif" font-style="italic" font-weight="700" font-size="48" transform="matrix(1 0 0 1 2706.41 1186)">0</text></g><g clip-path="url(#clip6)"><text font-family="Times New Roman,Times New Roman_MSFontService,sans-serif" font-style="italic" font-weight="700" font-size="48" transform="matrix(1 0 0 1 2706.41 1060)">5</text></g><g clip-path="url(#clip7)"><text font-family="Times New Roman,Times New Roman_MSFontService,sans-serif" font-style="italic" font-weight="700" font-size="48" transform="matrix(1 0 0 1 2682.35 933)">10</text></g><g clip-path="url(#clip8)"><text font-family="Times New Roman,Times New Roman_MSFontService,sans-serif" font-style="italic" font-weight="700" font-size="48" transform="matrix(1 0 0 1 2682.35 806)">15</text></g><g clip-path="url(#clip9)"><text font-family="Times New Roman,Times New Roman_MSFontService,sans-serif" font-style="italic" font-weight="700" font-size="48" transform="matrix(1 0 0 1 2682.35 679)">20</text></g><g clip-path="url(#clip10)"><text font-family="Times New Roman,Times New Roman_MSFontService,sans-serif" font-style="italic" font-weight="700" font-size="48" transform="matrix(1 0 0 1 2682.35 552)">25</text></g><g clip-path="url(#clip11)"><text font-family="Times New Roman,Times New Roman_MSFontService,sans-serif" font-style="italic" font-weight="700" font-size="48" transform="matrix(1 0 0 1 2759.38 1243)">0</text></g><g clip-path="url(#clip12)"><text font-family="Times New Roman,Times New Roman_MSFontService,sans-serif" font-style="italic" font-weight="700" font-size="48" transform="matrix(1 0 0 1 3037.55 1243)">500</text></g><g clip-path="url(#clip13)"><text font-family="Times New Roman,Times New Roman_MSFontService,sans-serif" font-style="italic" font-weight="700" font-size="48" transform="matrix(1 0 0 1 3327.76 1243)">1000</text></g><g clip-path="url(#clip14)"><text font-family="Times New Roman,Times New Roman_MSFontService,sans-serif" font-style="italic" font-weight="700" font-size="48" transform="matrix(1 0 0 1 3630 1243)">1500</text></g><g clip-path="url(#clip15)"><text font-family="Times New Roman,Times New Roman_MSFontService,sans-serif" font-style="italic" font-weight="700" font-size="48" transform="matrix(1 0 0 1 3932.24 1243)">2000</text></g><g clip-path="url(#clip16)"><text font-family="Times New Roman,Times New Roman_MSFontService,sans-serif" font-style="italic" font-weight="700" font-size="64" transform="matrix(6.12323e-17 -1 1 6.12323e-17 2654.8 1111)">Memory Usage (%)</text></g><g clip-path="url(#clip17)"><text font-family="Times New Roman,Times New Roman_MSFontService,sans-serif" font-style="italic" font-weight="700" font-size="64" transform="matrix(1 0 0 1 3242.54 1327)">Time (ms)</text></g></g></svg>