<svg width="3066" height="728" xmlns="http://www.w3.org/2000/svg" xmlns:xlink="http://www.w3.org/1999/xlink" overflow="hidden"><defs><clipPath id="clip0"><rect x="1022" y="736" width="3066" height="728"/></clipPath></defs><g clip-path="url(#clip0)" transform="translate(-1022 -736)"><path d="M1024.53 738.823 1987.13 738.823 1987.13 852.717 1024.53 852.717Z" fill="#99B2DF" fill-rule="evenodd"/><path d="M1987.13 738.823 2939.71 738.823 2939.71 852.717 1987.13 852.717Z" fill="#99B2DF" fill-rule="evenodd"/><path d="M2939.71 738.823 4082.79 738.823 4082.79 852.717 2939.71 852.717Z" fill="#99B2DF" fill-rule="evenodd"/><path d="M1024.53 852.717 1987.13 852.717 1987.13 966.612 1024.53 966.612Z" fill="#B3C6E7" fill-rule="evenodd"/><path d="M1987.13 852.717 2939.71 852.717 2939.71 966.612 1987.13 966.612Z" fill="#B3C6E7" fill-rule="evenodd"/><path d="M2939.71 852.717 4082.79 852.717 4082.79 966.612 2939.71 966.612Z" fill="#B3C6E7" fill-rule="evenodd"/><path d="M1024.53 966.612 1987.13 966.612 1987.13 1080.51 1024.53 1080.51Z" fill="#B3C6E7" fill-rule="evenodd"/><path d="M1987.13 966.612 2939.71 966.612 2939.71 1080.51 1987.13 1080.51Z" fill="#B3C6E7" fill-rule="evenodd"/><path d="M2939.71 966.612 4082.79 966.612 4082.79 1080.51 2939.71 1080.51Z" fill="#B3C6E7" fill-rule="evenodd"/><path d="M1024.53 1080.51 1987.13 1080.51 1987.13 1194.4 1024.53 1194.4Z" fill="#B3C6E7" fill-rule="evenodd"/><path d="M1987.13 1080.51 2939.71 1080.51 2939.71 1194.4 1987.13 1194.4Z" fill="#B3C6E7" fill-rule="evenodd"/><path d="M2939.71 1080.51 4082.79 1080.51 4082.79 1194.4 2939.71 1194.4Z" fill="#B3C6E7" fill-rule="evenodd"/><path d="M1024.53 1194.4 1987.13 1194.4 1987.13 1308.3 1024.53 1308.3Z" fill="#B3C6E7" fill-rule="evenodd"/><path d="M1987.13 1194.4 2939.71 1194.4 2939.71 1308.3 1987.13 1308.3Z" fill="#B3C6E7" fill-rule="evenodd"/><path d="M2939.71 1194.4 4082.79 1194.4 4082.79 1308.3 2939.71 1308.3Z" fill="#B3C6E7" fill-rule="evenodd"/><path d="M1024.53 1308.3 1987.13 1308.3 1987.13 1422.19 1024.53 1422.19Z" fill="#B3C6E7" fill-rule="evenodd"/><path d="M1987.13 1308.3 2939.71 1308.3 2939.71 1422.19 1987.13 1422.19Z" fill="#B3C6E7" fill-rule="evenodd"/><path d="M2939.71 1308.3 4082.79 1308.3 4082.79 1422.19 2939.71 1422.19Z" fill="#B3C6E7" fill-rule="evenodd"/><path d="M1987.13 736.531 1987.13 1424.48" stroke="#FFFFFF" stroke-width="4.58333" stroke-linejoin="round" stroke-miterlimit="10" fill="none" fill-rule="evenodd"/><path d="M2939.71 736.531 2939.71 1424.48" stroke="#FFFFFF" stroke-width="4.58333" stroke-linejoin="round" stroke-miterlimit="10" fill="none" fill-rule="evenodd"/><path d="M1022.24 852.717 4085.08 852.717" stroke="#FFFFFF" stroke-width="4.58333" stroke-linejoin="round" stroke-miterlimit="10" fill="none" fill-rule="evenodd"/><path d="M1022.24 966.612 4085.08 966.612" stroke="#FFFFFF" stroke-width="4.58333" stroke-linejoin="round" stroke-miterlimit="10" fill="none" fill-rule="evenodd"/><path d="M1022.24 1080.51 4085.08 1080.51" stroke="#FFFFFF" stroke-width="4.58333" stroke-linejoin="round" stroke-miterlimit="10" fill="none" fill-rule="evenodd"/><path d="M1022.24 1194.4 4085.08 1194.4" stroke="#FFFFFF" stroke-width="4.58333" stroke-linejoin="round" stroke-miterlimit="10" fill="none" fill-rule="evenodd"/><path d="M1022.24 1308.3 4085.08 1308.3" stroke="#FFFFFF" stroke-width="4.58333" stroke-linejoin="round" stroke-miterlimit="10" fill="none" fill-rule="evenodd"/><path d="M1024.53 736.531 1024.53 1424.48" stroke="#FFFFFF" stroke-width="4.58333" stroke-linejoin="round" stroke-miterlimit="10" fill="none" fill-rule="evenodd"/><path d="M4082.79 736.531 4082.79 1424.48" stroke="#FFFFFF" stroke-width="4.58333" stroke-linejoin="round" stroke-miterlimit="10" fill="none" fill-rule="evenodd"/><path d="M1022.24 738.823 4085.08 738.823" stroke="#FFFFFF" stroke-width="4.58333" stroke-linejoin="round" stroke-miterlimit="10" fill="none" fill-rule="evenodd"/><path d="M1022.24 1422.19 4085.08 1422.19" stroke="#FFFFFF" stroke-width="4.58333" stroke-linejoin="round" stroke-miterlimit="10" fill="none" fill-rule="evenodd"/><text font-family="SimHei,SimHei_MSFontService,sans-serif" font-weight="700" font-size="73" transform="matrix(1 0 0 1 1431.93 839)">架构<tspan font-size="73" x="920.632" y="0">虚拟机</tspan><tspan font-size="73" x="2005.41" y="0">容器</tspan><tspan font-weight="400" font-size="73" x="0.572754" y="114">启动</tspan><tspan font-weight="400" font-size="73" x="921.491" y="114">分钟级</tspan><tspan font-weight="400" font-size="73" x="2005.99" y="114">秒级</tspan><tspan font-weight="400" font-size="73" x="-72.7606" y="228">资源占用</tspan><tspan font-weight="400" font-size="73" x="994.825" y="228">大</tspan><tspan font-weight="400" font-size="73" x="2042.65" y="228">小</tspan><tspan font-weight="400" font-size="73" x="-72.7606" y="341">内存占用</tspan><tspan font-family="Arial,Arial_MSFontService,sans-serif" font-weight="400" font-size="73" x="957.012" y="337">~GB</tspan><tspan font-family="Arial,Arial_MSFontService,sans-serif" font-weight="400" font-size="73" x="2002.84" y="337">~MB</tspan><tspan font-weight="400" font-size="73" x="-72.7606" y="455">运行密度</tspan><tspan font-weight="400" font-size="73" x="884.825" y="455">单机几个</tspan><tspan font-weight="400" font-size="73" x="1895.99" y="455">单机上千个</tspan><tspan font-weight="400" font-size="73" x="-219.427" y="569">拥有独立操作系统</tspan><tspan font-weight="400" font-size="73" x="994.825" y="569">是</tspan><tspan font-weight="400" font-size="73" x="1749.32" y="569">否，共用宿主机内核</tspan></text></g></svg>